<svg width="484" height="208" viewBox="0 0 484 208" fill="none" xmlns="http://www.w3.org/2000/svg">
<path d="M42.6311 101.32L58.8647 98.3112L57.4083 108.609C56.4131 115.645 54.7848 122.758 52.5235 129.945C50.3475 137.117 47.5077 143.994 44.0044 150.577C40.5862 157.143 36.4069 163.224 31.4665 168.819C26.6234 174.313 21.0252 178.985 14.6717 182.837L5.47965 168.622C11.115 165.154 15.9952 161.158 20.1204 156.633C24.3308 152.092 27.8715 147.299 30.7425 142.255C33.6256 137.125 35.8878 131.984 37.5291 126.833C39.2677 121.581 40.483 116.509 41.1747 111.617L42.6311 101.32ZM47.1049 100.491L63.3385 97.482L61.8821 107.78C61.251 112.242 61.0704 116.746 61.3402 121.292C61.7074 125.736 62.6407 129.992 64.14 134.06C65.7245 138.111 68.0453 141.65 71.1025 144.677C74.257 147.602 78.2634 149.784 83.1218 151.223L69.5613 169.655C63.9725 168.101 59.4119 165.436 55.8795 161.662C52.3594 157.802 49.6911 153.199 47.8747 147.854C46.0583 142.508 44.9722 136.693 44.6163 130.408C44.3578 124.022 44.7019 117.482 45.6485 110.788L47.1049 100.491ZM20.3678 96.7974L86.8358 84.4782L84.4328 101.469L17.9648 113.788L20.3678 96.7974ZM94.2813 72.3186L114.989 68.4808L97.9125 189.219L77.2052 193.057L94.2813 72.3186ZM104.216 113.847L124.796 110.033L122.392 127.023L101.813 130.838L104.216 113.847ZM217.365 49.5064L238.072 45.6685L225.657 133.455L204.949 137.293L217.365 49.5064ZM142.158 163.22L226.266 147.631L223.935 164.107L139.828 179.696L142.158 163.22ZM145.453 139.922L166.033 136.107L161.5 168.159L140.92 171.973L145.453 139.922ZM163.134 65.9501L180.135 62.7992L178.515 74.2552C177.398 82.15 175.174 89.9576 171.841 97.6781C168.606 105.297 164.086 112.318 158.282 118.742C152.477 125.166 145.205 130.525 136.466 134.819L128.442 120.262C135.843 116.634 141.831 112.432 146.407 107.657C151.08 102.78 154.571 97.7453 156.882 92.5538C159.29 87.2608 160.834 82.2116 161.514 77.4061L163.134 65.9501ZM167.48 65.1446L184.225 62.0411L182.605 73.4971C182.095 77.1013 182.012 80.6264 182.354 84.0726C182.708 87.433 183.678 90.5541 185.262 93.4359C186.858 96.2319 189.178 98.6013 192.223 100.544C195.352 102.471 199.365 103.733 204.259 104.33L191.575 122.725C183.844 121.651 177.92 118.947 173.803 114.612C169.686 110.278 167.054 104.833 165.906 98.2767C164.771 91.6349 164.756 84.4095 165.86 76.6006L167.48 65.1446ZM270.342 110.508L285.681 107.665L285.298 110.368C284.376 116.89 282.613 123.191 280.011 129.272C277.493 135.338 273.971 140.879 269.444 145.896C264.991 150.983 259.319 155.293 252.43 158.826L244.59 145.614C250.213 142.817 254.765 139.675 258.245 136.189C261.823 132.601 264.512 128.844 266.312 124.917C268.198 120.974 269.413 117.072 269.959 113.211L270.342 110.508ZM275.71 109.513L290.282 106.812L289.9 109.515C289.366 113.291 289.471 116.948 290.215 120.487C290.959 124.026 292.556 127.114 295.004 129.752C297.452 132.39 301.002 134.281 305.653 135.425L295.324 152.13C289.029 150.873 284.292 148.283 281.113 144.36C277.934 140.437 275.953 135.665 275.172 130.044C274.402 124.337 274.454 118.394 275.328 112.216L275.71 109.513ZM313.674 102.477L328.246 99.7758L327.863 102.479C327.014 108.486 325.318 114.608 322.776 120.845C320.32 127.066 316.841 132.892 312.338 138.322C307.921 143.737 302.25 148.339 295.324 152.13L289.164 138.481C294.422 135.334 298.73 131.861 302.089 128.063C305.447 124.265 308.027 120.403 309.827 116.476C311.627 112.549 312.782 108.784 313.291 105.18L313.674 102.477ZM318.659 101.553L333.998 98.7097L333.615 101.413C333.033 105.532 333.114 109.361 333.858 112.9C334.699 116.337 336.448 119.23 339.103 121.579C341.855 123.827 345.801 125.268 350.939 125.903L338.838 142.811C332.592 141.796 327.813 139.507 324.5 135.943C321.174 132.464 319.066 128.008 318.175 122.575C317.296 117.055 317.33 110.949 318.277 104.256L318.659 101.553ZM334.952 27.7129L355.66 23.875L346.048 91.8387L325.34 95.6765L334.952 27.7129ZM289.03 41.7393C295.336 40.5706 300.82 40.8075 305.484 42.45C310.16 44.0068 313.631 46.7478 315.897 50.6731C318.261 54.4967 319.042 59.2404 318.241 64.904C317.44 70.5676 315.233 75.907 311.619 80.922C308.103 85.8355 303.649 90.0453 298.257 93.5515C292.877 96.9719 287.034 99.2665 280.728 100.435C274.422 101.604 268.932 101.41 264.256 99.8532C259.592 98.2106 256.079 95.4775 253.715 91.6539C251.449 87.7286 250.716 82.9342 251.517 77.2705C252.318 71.6069 254.477 66.3183 257.993 61.4049C261.607 56.3899 266.103 52.1721 271.483 48.7517C276.875 45.2455 282.724 42.9081 289.03 41.7393ZM286.608 58.859C284.137 59.317 281.812 60.2075 279.634 61.5305C277.552 62.7518 275.788 64.3741 274.34 66.3973C272.977 68.4047 272.102 70.7814 271.713 73.5274C271.337 76.1876 271.569 78.359 272.41 80.0415C273.348 81.6225 274.731 82.7033 276.557 83.284C278.481 83.7631 280.678 83.7736 283.15 83.3156C285.706 82.8418 288.025 81.9942 290.106 80.7728C292.2 79.4656 293.928 77.8083 295.29 75.8009C296.75 73.6919 297.669 71.3073 298.045 68.6471C298.433 65.9011 298.158 63.7376 297.22 62.1567C296.367 60.5599 295.021 59.5141 293.183 59.0193C291.356 58.4386 289.165 58.3851 286.608 58.859ZM456.266 48.2221L476.845 44.4079L474.442 61.3988L453.863 65.213L456.266 48.2221ZM447.08 6.68064L467.787 2.84276L450.711 123.581L430.004 127.419L447.08 6.68064ZM374.262 31.3323L394.841 27.5181L384.21 102.69L363.63 106.504L374.262 31.3323ZM365.305 94.6621L376.042 92.672C384.393 91.1243 393.219 89.1543 402.519 86.762C411.905 84.354 421.503 81.3216 431.315 77.6648L430.975 94.148C420.884 98.0238 410.975 101.197 401.249 103.668C391.522 106.14 382.313 108.181 373.621 109.792L362.884 111.782L365.305 94.6621Z" fill="white"/>
</svg>
